<svg width="209" height="154" viewBox="0 0 209 154" fill="none" xmlns="http://www.w3.org/2000/svg">
<circle cx="1.77568" cy="1.77568" r="1.77568" fill="#EBEBEB"/>
<circle cx="12.7757" cy="1.77568" r="1.77568" fill="#EBEBEB"/>
<circle cx="23.7757" cy="1.77568" r="1.77568" fill="#EBEBEB"/>
<circle cx="66.7757" cy="1.77568" r="1.77568" fill="#EBEBEB"/>
<circle cx="77.7757" cy="1.77568" r="1.77568" fill="#EBEBEB"/>
<circle cx="88.7757" cy="1.77568" r="1.77568" fill="#EBEBEB"/>
<circle cx="99.7757" cy="1.77568" r="1.77568" fill="#EBEBEB"/>
<circle cx="74.7757" cy="1.77568" r="1.77568" fill="#EBEBEB"/>
<circle cx="85.7757" cy="1.77568" r="1.77568" fill="#EBEBEB"/>
<circle cx="96.7757" cy="1.77568" r="1.77568" fill="#EBEBEB"/>
<circle cx="107.776" cy="1.77568" r="1.77568" fill="#EBEBEB"/>
<circle cx="118.776" cy="1.77568" r="1.77568" fill="#EBEBEB"/>
<circle cx="129.776" cy="1.77568" r="1.77568" fill="#EBEBEB"/>
<circle cx="140.776" cy="1.77568" r="1.77568" fill="#EBEBEB"/>
<circle cx="151.776" cy="1.77568" r="1.77568" fill="#EBEBEB"/>
<circle cx="162.776" cy="1.77568" r="1.77568" fill="#EBEBEB"/>
<circle cx="173.776" cy="1.77568" r="1.77568" fill="#EBEBEB"/>
<circle cx="184.776" cy="1.77568" r="1.77568" fill="#EBEBEB"/>
<circle cx="195.776" cy="1.77568" r="1.77568" fill="#EBEBEB"/>
<circle cx="206.776" cy="1.77568" r="1.77568" fill="#EBEBEB"/>
<circle cx="1.77568" cy="11.7757" r="1.77568" fill="#EBEBEB"/>
<circle cx="12.7757" cy="11.7757" r="1.77568" fill="#EBEBEB"/>
<circle cx="23.7757" cy="11.7757" r="1.77568" fill="#EBEBEB"/>
<circle cx="66.7757" cy="11.7757" r="1.77568" fill="#EBEBEB"/>
<circle cx="77.7757" cy="11.7757" r="1.77568" fill="#EBEBEB"/>
<circle cx="88.7757" cy="11.7757" r="1.77568" fill="#EBEBEB"/>
<circle cx="99.7757" cy="11.7757" r="1.77568" fill="#EBEBEB"/>
<circle cx="74.7757" cy="11.7757" r="1.77568" fill="#EBEBEB"/>
<circle cx="85.7757" cy="11.7757" r="1.77568" fill="#EBEBEB"/>
<circle cx="96.7757" cy="11.7757" r="1.77568" fill="#EBEBEB"/>
<circle cx="107.776" cy="11.7757" r="1.77568" fill="#EBEBEB"/>
<circle cx="118.776" cy="11.7757" r="1.77568" fill="#EBEBEB"/>
<circle cx="129.776" cy="11.7757" r="1.77568" fill="#EBEBEB"/>
<circle cx="140.776" cy="11.7757" r="1.77568" fill="#EBEBEB"/>
<circle cx="151.776" cy="11.7757" r="1.77568" fill="#EBEBEB"/>
<circle cx="162.776" cy="11.7757" r="1.77568" fill="#EBEBEB"/>
<circle cx="173.776" cy="11.7757" r="1.77568" fill="#EBEBEB"/>
<circle cx="184.776" cy="11.7757" r="1.77568" fill="#EBEBEB"/>
<circle cx="195.776" cy="11.7757" r="1.77568" fill="#EBEBEB"/>
<circle cx="206.776" cy="11.7757" r="1.77568" fill="#EBEBEB"/>
<circle cx="1.77568" cy="21.7757" r="1.77568" fill="#EBEBEB"/>
<circle cx="12.7757" cy="21.7757" r="1.77568" fill="#EBEBEB"/>
<circle cx="23.7757" cy="21.7757" r="1.77568" fill="#EBEBEB"/>
<circle cx="66.7757" cy="21.7757" r="1.77568" fill="#EBEBEB"/>
<circle cx="77.7757" cy="21.7757" r="1.77568" fill="#EBEBEB"/>
<circle cx="88.7757" cy="21.7757" r="1.77568" fill="#EBEBEB"/>
<circle cx="99.7757" cy="21.7757" r="1.77568" fill="#EBEBEB"/>
<circle cx="74.7757" cy="21.7757" r="1.77568" fill="#EBEBEB"/>
<circle cx="85.7757" cy="21.7757" r="1.77568" fill="#EBEBEB"/>
<circle cx="96.7757" cy="21.7757" r="1.77568" fill="#EBEBEB"/>
<circle cx="107.776" cy="21.7757" r="1.77568" fill="#EBEBEB"/>
<circle cx="118.776" cy="21.7757" r="1.77568" fill="#EBEBEB"/>
<circle cx="129.776" cy="21.7757" r="1.77568" fill="#EBEBEB"/>
<circle cx="140.776" cy="21.7757" r="1.77568" fill="#EBEBEB"/>
<circle cx="151.776" cy="21.7757" r="1.77568" fill="#EBEBEB"/>
<circle cx="162.776" cy="21.7757" r="1.77568" fill="#EBEBEB"/>
<circle cx="173.776" cy="21.7757" r="1.77568" fill="#EBEBEB"/>
<circle cx="184.776" cy="21.7757" r="1.77568" fill="#EBEBEB"/>
<circle cx="195.776" cy="21.7757" r="1.77568" fill="#EBEBEB"/>
<circle cx="206.776" cy="21.7757" r="1.77568" fill="#EBEBEB"/>
<circle cx="1.77568" cy="31.7757" r="1.77568" fill="#EBEBEB"/>
<circle cx="12.7757" cy="31.7757" r="1.77568" fill="#EBEBEB"/>
<circle cx="23.7757" cy="31.7757" r="1.77568" fill="#EBEBEB"/>
<circle cx="66.7757" cy="31.7757" r="1.77568" fill="#EBEBEB"/>
<circle cx="77.7757" cy="31.7757" r="1.77568" fill="#EBEBEB"/>
<circle cx="88.7757" cy="31.7757" r="1.77568" fill="#EBEBEB"/>
<circle cx="99.7757" cy="31.7757" r="1.77568" fill="#EBEBEB"/>
<circle cx="74.7757" cy="31.7757" r="1.77568" fill="#EBEBEB"/>
<circle cx="85.7757" cy="31.7757" r="1.77568" fill="#EBEBEB"/>
<circle cx="96.7757" cy="31.7757" r="1.77568" fill="#EBEBEB"/>
<circle cx="107.776" cy="31.7757" r="1.77568" fill="#EBEBEB"/>
<circle cx="118.776" cy="31.7757" r="1.77568" fill="#EBEBEB"/>
<circle cx="129.776" cy="31.7757" r="1.77568" fill="#EBEBEB"/>
<circle cx="140.776" cy="31.7757" r="1.77568" fill="#EBEBEB"/>
<circle cx="151.776" cy="31.7757" r="1.77568" fill="#EBEBEB"/>
<circle cx="162.776" cy="31.7757" r="1.77568" fill="#EBEBEB"/>
<circle cx="173.776" cy="31.7757" r="1.77568" fill="#EBEBEB"/>
<circle cx="184.776" cy="31.7757" r="1.77568" fill="#EBEBEB"/>
<circle cx="195.776" cy="31.7757" r="1.77568" fill="#EBEBEB"/>
<circle cx="206.776" cy="31.7757" r="1.77568" fill="#EBEBEB"/>
<circle cx="1.77568" cy="41.7757" r="1.77568" fill="#EBEBEB"/>
<circle cx="12.7757" cy="41.7757" r="1.77568" fill="#EBEBEB"/>
<circle cx="23.7757" cy="41.7757" r="1.77568" fill="#EBEBEB"/>
<circle cx="66.7757" cy="41.7757" r="1.77568" fill="#EBEBEB"/>
<circle cx="77.7757" cy="41.7757" r="1.77568" fill="#EBEBEB"/>
<circle cx="88.7757" cy="41.7757" r="1.77568" fill="#EBEBEB"/>
<circle cx="99.7757" cy="41.7757" r="1.77568" fill="#EBEBEB"/>
<circle cx="74.7757" cy="41.7757" r="1.77568" fill="#EBEBEB"/>
<circle cx="85.7757" cy="41.7757" r="1.77568" fill="#EBEBEB"/>
<circle cx="96.7757" cy="41.7757" r="1.77568" fill="#EBEBEB"/>
<circle cx="107.776" cy="41.7757" r="1.77568" fill="#EBEBEB"/>
<circle cx="118.776" cy="41.7757" r="1.77568" fill="#EBEBEB"/>
<circle cx="129.776" cy="41.7757" r="1.77568" fill="#EBEBEB"/>
<circle cx="140.776" cy="41.7757" r="1.77568" fill="#EBEBEB"/>
<circle cx="151.776" cy="41.7757" r="1.77568" fill="#EBEBEB"/>
<circle cx="162.776" cy="41.7757" r="1.77568" fill="#EBEBEB"/>
<circle cx="173.776" cy="41.7757" r="1.77568" fill="#EBEBEB"/>
<circle cx="184.776" cy="41.7757" r="1.77568" fill="#EBEBEB"/>
<circle cx="195.776" cy="41.7757" r="1.77568" fill="#EBEBEB"/>
<circle cx="206.776" cy="41.7757" r="1.77568" fill="#EBEBEB"/>
<circle cx="1.77568" cy="51.7757" r="1.77568" fill="#EBEBEB"/>
<circle cx="12.7757" cy="51.7757" r="1.77568" fill="#EBEBEB"/>
<circle cx="23.7757" cy="51.7757" r="1.77568" fill="#EBEBEB"/>
<circle cx="66.7757" cy="51.7757" r="1.77568" fill="#EBEBEB"/>
<circle cx="77.7757" cy="51.7757" r="1.77568" fill="#EBEBEB"/>
<circle cx="88.7757" cy="51.7757" r="1.77568" fill="#EBEBEB"/>
<circle cx="99.7757" cy="51.7757" r="1.77568" fill="#EBEBEB"/>
<circle cx="74.7757" cy="51.7757" r="1.77568" fill="#EBEBEB"/>
<circle cx="85.7757" cy="51.7757" r="1.77568" fill="#EBEBEB"/>
<circle cx="96.7757" cy="51.7757" r="1.77568" fill="#EBEBEB"/>
<circle cx="107.776" cy="51.7757" r="1.77568" fill="#EBEBEB"/>
<circle cx="118.776" cy="51.7757" r="1.77568" fill="#EBEBEB"/>
<circle cx="129.776" cy="51.7757" r="1.77568" fill="#EBEBEB"/>
<circle cx="140.776" cy="51.7757" r="1.77568" fill="#EBEBEB"/>
<circle cx="151.776" cy="51.7757" r="1.77568" fill="#EBEBEB"/>
<circle cx="162.776" cy="51.7757" r="1.77568" fill="#EBEBEB"/>
<circle cx="173.776" cy="51.7757" r="1.77568" fill="#EBEBEB"/>
<circle cx="184.776" cy="51.7757" r="1.77568" fill="#EBEBEB"/>
<circle cx="195.776" cy="51.7757" r="1.77568" fill="#EBEBEB"/>
<circle cx="206.776" cy="51.7757" r="1.77568" fill="#EBEBEB"/>
<circle cx="1.77568" cy="61.7757" r="1.77568" fill="#EBEBEB"/>
<circle cx="12.7757" cy="61.7757" r="1.77568" fill="#EBEBEB"/>
<circle cx="23.7757" cy="61.7757" r="1.77568" fill="#EBEBEB"/>
<circle cx="66.7757" cy="61.7757" r="1.77568" fill="#EBEBEB"/>
<circle cx="77.7757" cy="61.7757" r="1.77568" fill="#EBEBEB"/>
<circle cx="88.7757" cy="61.7757" r="1.77568" fill="#EBEBEB"/>
<circle cx="99.7757" cy="61.7757" r="1.77568" fill="#EBEBEB"/>
<circle cx="74.7757" cy="61.7757" r="1.77568" fill="#EBEBEB"/>
<circle cx="85.7757" cy="61.7757" r="1.77568" fill="#EBEBEB"/>
<circle cx="96.7757" cy="61.7757" r="1.77568" fill="#EBEBEB"/>
<circle cx="107.776" cy="61.7757" r="1.77568" fill="#EBEBEB"/>
<circle cx="118.776" cy="61.7757" r="1.77568" fill="#EBEBEB"/>
<circle cx="129.776" cy="61.7757" r="1.77568" fill="#EBEBEB"/>
<circle cx="140.776" cy="61.7757" r="1.77568" fill="#EBEBEB"/>
<circle cx="151.776" cy="61.7757" r="1.77568" fill="#EBEBEB"/>
<circle cx="162.776" cy="61.7757" r="1.77568" fill="#EBEBEB"/>
<circle cx="173.776" cy="61.7757" r="1.77568" fill="#EBEBEB"/>
<circle cx="184.776" cy="61.7757" r="1.77568" fill="#EBEBEB"/>
<circle cx="195.776" cy="61.7757" r="1.77568" fill="#EBEBEB"/>
<circle cx="206.776" cy="61.7757" r="1.77568" fill="#EBEBEB"/>
<circle cx="1.77568" cy="71.7757" r="1.77568" fill="#EBEBEB"/>
<circle cx="12.7757" cy="71.7757" r="1.77568" fill="#EBEBEB"/>
<circle cx="23.7757" cy="71.7757" r="1.77568" fill="#EBEBEB"/>
<circle cx="66.7757" cy="71.7757" r="1.77568" fill="#EBEBEB"/>
<circle cx="77.7757" cy="71.7757" r="1.77568" fill="#EBEBEB"/>
<circle cx="88.7757" cy="71.7757" r="1.77568" fill="#EBEBEB"/>
<circle cx="99.7757" cy="71.7757" r="1.77568" fill="#EBEBEB"/>
<circle cx="74.7757" cy="71.7757" r="1.77568" fill="#EBEBEB"/>
<circle cx="85.7757" cy="71.7757" r="1.77568" fill="#EBEBEB"/>
<circle cx="96.7757" cy="71.7757" r="1.77568" fill="#EBEBEB"/>
<circle cx="107.776" cy="71.7757" r="1.77568" fill="#EBEBEB"/>
<circle cx="118.776" cy="71.7757" r="1.77568" fill="#EBEBEB"/>
<circle cx="129.776" cy="71.7757" r="1.77568" fill="#EBEBEB"/>
<circle cx="140.776" cy="71.7757" r="1.77568" fill="#EBEBEB"/>
<circle cx="151.776" cy="71.7757" r="1.77568" fill="#EBEBEB"/>
<circle cx="162.776" cy="71.7757" r="1.77568" fill="#EBEBEB"/>
<circle cx="173.776" cy="71.7757" r="1.77568" fill="#EBEBEB"/>
<circle cx="184.776" cy="71.7757" r="1.77568" fill="#EBEBEB"/>
<circle cx="195.776" cy="71.7757" r="1.77568" fill="#EBEBEB"/>
<circle cx="206.776" cy="71.7757" r="1.77568" fill="#EBEBEB"/>
<circle cx="1.77568" cy="81.7757" r="1.77568" fill="#EBEBEB"/>
<circle cx="12.7757" cy="81.7757" r="1.77568" fill="#EBEBEB"/>
<circle cx="23.7757" cy="81.7757" r="1.77568" fill="#EBEBEB"/>
<circle cx="66.7757" cy="81.7757" r="1.77568" fill="#EBEBEB"/>
<circle cx="77.7757" cy="81.7757" r="1.77568" fill="#EBEBEB"/>
<circle cx="88.7757" cy="81.7757" r="1.77568" fill="#EBEBEB"/>
<circle cx="99.7757" cy="81.7757" r="1.77568" fill="#EBEBEB"/>
<circle cx="74.7757" cy="81.7757" r="1.77568" fill="#EBEBEB"/>
<circle cx="85.7757" cy="81.7757" r="1.77568" fill="#EBEBEB"/>
<circle cx="96.7757" cy="81.7757" r="1.77568" fill="#EBEBEB"/>
<circle cx="107.776" cy="81.7757" r="1.77568" fill="#EBEBEB"/>
<circle cx="118.776" cy="81.7757" r="1.77568" fill="#EBEBEB"/>
<circle cx="129.776" cy="81.7757" r="1.77568" fill="#EBEBEB"/>
<circle cx="140.776" cy="81.7757" r="1.77568" fill="#EBEBEB"/>
<circle cx="151.776" cy="81.7757" r="1.77568" fill="#EBEBEB"/>
<circle cx="162.776" cy="81.7757" r="1.77568" fill="#EBEBEB"/>
<circle cx="173.776" cy="81.7757" r="1.77568" fill="#EBEBEB"/>
<circle cx="184.776" cy="81.7757" r="1.77568" fill="#EBEBEB"/>
<circle cx="195.776" cy="81.7757" r="1.77568" fill="#EBEBEB"/>
<circle cx="206.776" cy="81.7757" r="1.77568" fill="#EBEBEB"/>
<circle cx="1.77568" cy="91.7757" r="1.77568" fill="#EBEBEB"/>
<circle cx="12.7757" cy="91.7757" r="1.77568" fill="#EBEBEB"/>
<circle cx="23.7757" cy="91.7757" r="1.77568" fill="#EBEBEB"/>
<circle cx="66.7757" cy="91.7757" r="1.77568" fill="#EBEBEB"/>
<circle cx="77.7757" cy="91.7757" r="1.77568" fill="#EBEBEB"/>
<circle cx="88.7757" cy="91.7757" r="1.77568" fill="#EBEBEB"/>
<circle cx="99.7757" cy="91.7757" r="1.77568" fill="#EBEBEB"/>
<circle cx="74.7757" cy="91.7757" r="1.77568" fill="#EBEBEB"/>
<circle cx="85.7757" cy="91.7757" r="1.77568" fill="#EBEBEB"/>
<circle cx="96.7757" cy="91.7757" r="1.77568" fill="#EBEBEB"/>
<circle cx="107.776" cy="91.7757" r="1.77568" fill="#EBEBEB"/>
<circle cx="118.776" cy="91.7757" r="1.77568" fill="#EBEBEB"/>
<circle cx="129.776" cy="91.7757" r="1.77568" fill="#EBEBEB"/>
<circle cx="140.776" cy="91.7757" r="1.77568" fill="#EBEBEB"/>
<circle cx="151.776" cy="91.7757" r="1.77568" fill="#EBEBEB"/>
<circle cx="162.776" cy="91.7757" r="1.77568" fill="#EBEBEB"/>
<circle cx="173.776" cy="91.7757" r="1.77568" fill="#EBEBEB"/>
<circle cx="184.776" cy="91.7757" r="1.77568" fill="#EBEBEB"/>
<circle cx="195.776" cy="91.7757" r="1.77568" fill="#EBEBEB"/>
<circle cx="206.776" cy="91.7757" r="1.77568" fill="#EBEBEB"/>
<circle cx="1.77568" cy="101.776" r="1.77568" fill="#EBEBEB"/>
<circle cx="12.7757" cy="101.776" r="1.77568" fill="#EBEBEB"/>
<circle cx="23.7757" cy="101.776" r="1.77568" fill="#EBEBEB"/>
<circle cx="66.7757" cy="101.776" r="1.77568" fill="#EBEBEB"/>
<circle cx="77.7757" cy="101.776" r="1.77568" fill="#EBEBEB"/>
<circle cx="88.7757" cy="101.776" r="1.77568" fill="#EBEBEB"/>
<circle cx="99.7757" cy="101.776" r="1.77568" fill="#EBEBEB"/>
<circle cx="74.7757" cy="101.776" r="1.77568" fill="#EBEBEB"/>
<circle cx="85.7757" cy="101.776" r="1.77568" fill="#EBEBEB"/>
<circle cx="96.7757" cy="101.776" r="1.77568" fill="#EBEBEB"/>
<circle cx="107.776" cy="101.776" r="1.77568" fill="#EBEBEB"/>
<circle cx="118.776" cy="101.776" r="1.77568" fill="#EBEBEB"/>
<circle cx="129.776" cy="101.776" r="1.77568" fill="#EBEBEB"/>
<circle cx="140.776" cy="101.776" r="1.77568" fill="#EBEBEB"/>
<circle cx="151.776" cy="101.776" r="1.77568" fill="#EBEBEB"/>
<circle cx="162.776" cy="101.776" r="1.77568" fill="#EBEBEB"/>
<circle cx="173.776" cy="101.776" r="1.77568" fill="#EBEBEB"/>
<circle cx="184.776" cy="101.776" r="1.77568" fill="#EBEBEB"/>
<circle cx="195.776" cy="101.776" r="1.77568" fill="#EBEBEB"/>
<circle cx="206.776" cy="101.776" r="1.77568" fill="#EBEBEB"/>
<circle cx="1.77568" cy="111.776" r="1.77568" fill="#EBEBEB"/>
<circle cx="12.7757" cy="111.776" r="1.77568" fill="#EBEBEB"/>
<circle cx="23.7757" cy="111.776" r="1.77568" fill="#EBEBEB"/>
<circle cx="66.7757" cy="111.776" r="1.77568" fill="#EBEBEB"/>
<circle cx="77.7757" cy="111.776" r="1.77568" fill="#EBEBEB"/>
<circle cx="88.7757" cy="111.776" r="1.77568" fill="#EBEBEB"/>
<circle cx="99.7757" cy="111.776" r="1.77568" fill="#EBEBEB"/>
<circle cx="74.7757" cy="111.776" r="1.77568" fill="#EBEBEB"/>
<circle cx="85.7757" cy="111.776" r="1.77568" fill="#EBEBEB"/>
<circle cx="96.7757" cy="111.776" r="1.77568" fill="#EBEBEB"/>
<circle cx="107.776" cy="111.776" r="1.77568" fill="#EBEBEB"/>
<circle cx="118.776" cy="111.776" r="1.77568" fill="#EBEBEB"/>
<circle cx="129.776" cy="111.776" r="1.77568" fill="#EBEBEB"/>
<circle cx="140.776" cy="111.776" r="1.77568" fill="#EBEBEB"/>
<circle cx="151.776" cy="111.776" r="1.77568" fill="#EBEBEB"/>
<circle cx="162.776" cy="111.776" r="1.77568" fill="#EBEBEB"/>
<circle cx="173.776" cy="111.776" r="1.77568" fill="#EBEBEB"/>
<circle cx="184.776" cy="111.776" r="1.77568" fill="#EBEBEB"/>
<circle cx="195.776" cy="111.776" r="1.77568" fill="#EBEBEB"/>
<circle cx="206.776" cy="111.776" r="1.77568" fill="#EBEBEB"/>
<circle cx="1.77568" cy="121.776" r="1.77568" fill="#EBEBEB"/>
<circle cx="12.7757" cy="121.776" r="1.77568" fill="#EBEBEB"/>
<circle cx="23.7757" cy="121.776" r="1.77568" fill="#EBEBEB"/>
<circle cx="66.7757" cy="121.776" r="1.77568" fill="#EBEBEB"/>
<circle cx="77.7757" cy="121.776" r="1.77568" fill="#EBEBEB"/>
<circle cx="88.7757" cy="121.776" r="1.77568" fill="#EBEBEB"/>
<circle cx="99.7757" cy="121.776" r="1.77568" fill="#EBEBEB"/>
<circle cx="74.7757" cy="121.776" r="1.77568" fill="#EBEBEB"/>
<circle cx="85.7757" cy="121.776" r="1.77568" fill="#EBEBEB"/>
<circle cx="96.7757" cy="121.776" r="1.77568" fill="#EBEBEB"/>
<circle cx="107.776" cy="121.776" r="1.77568" fill="#EBEBEB"/>
<circle cx="118.776" cy="121.776" r="1.77568" fill="#EBEBEB"/>
<circle cx="129.776" cy="121.776" r="1.77568" fill="#EBEBEB"/>
<circle cx="140.776" cy="121.776" r="1.77568" fill="#EBEBEB"/>
<circle cx="151.776" cy="121.776" r="1.77568" fill="#EBEBEB"/>
<circle cx="162.776" cy="121.776" r="1.77568" fill="#EBEBEB"/>
<circle cx="173.776" cy="121.776" r="1.77568" fill="#EBEBEB"/>
<circle cx="184.776" cy="121.776" r="1.77568" fill="#EBEBEB"/>
<circle cx="195.776" cy="121.776" r="1.77568" fill="#EBEBEB"/>
<circle cx="206.776" cy="121.776" r="1.77568" fill="#EBEBEB"/>
<circle cx="1.77568" cy="131.776" r="1.77568" fill="#EBEBEB"/>
<circle cx="12.7757" cy="131.776" r="1.77568" fill="#EBEBEB"/>
<circle cx="23.7757" cy="131.776" r="1.77568" fill="#EBEBEB"/>
<circle cx="66.7757" cy="131.776" r="1.77568" fill="#EBEBEB"/>
<circle cx="77.7757" cy="131.776" r="1.77568" fill="#EBEBEB"/>
<circle cx="88.7757" cy="131.776" r="1.77568" fill="#EBEBEB"/>
<circle cx="99.7757" cy="131.776" r="1.77568" fill="#EBEBEB"/>
<circle cx="74.7757" cy="131.776" r="1.77568" fill="#EBEBEB"/>
<circle cx="85.7757" cy="131.776" r="1.77568" fill="#EBEBEB"/>
<circle cx="96.7757" cy="131.776" r="1.77568" fill="#EBEBEB"/>
<circle cx="107.776" cy="131.776" r="1.77568" fill="#EBEBEB"/>
<circle cx="118.776" cy="131.776" r="1.77568" fill="#EBEBEB"/>
<circle cx="129.776" cy="131.776" r="1.77568" fill="#EBEBEB"/>
<circle cx="140.776" cy="131.776" r="1.77568" fill="#EBEBEB"/>
<circle cx="151.776" cy="131.776" r="1.77568" fill="#EBEBEB"/>
<circle cx="162.776" cy="131.776" r="1.77568" fill="#EBEBEB"/>
<circle cx="173.776" cy="131.776" r="1.77568" fill="#EBEBEB"/>
<circle cx="184.776" cy="131.776" r="1.77568" fill="#EBEBEB"/>
<circle cx="195.776" cy="131.776" r="1.77568" fill="#EBEBEB"/>
<circle cx="206.776" cy="131.776" r="1.77568" fill="#EBEBEB"/>
<circle cx="1.77568" cy="141.776" r="1.77568" fill="#EBEBEB"/>
<circle cx="12.7757" cy="141.776" r="1.77568" fill="#EBEBEB"/>
<circle cx="23.7757" cy="141.776" r="1.77568" fill="#EBEBEB"/>
<circle cx="66.7757" cy="141.776" r="1.77568" fill="#EBEBEB"/>
<circle cx="77.7757" cy="141.776" r="1.77568" fill="#EBEBEB"/>
<circle cx="88.7757" cy="141.776" r="1.77568" fill="#EBEBEB"/>
<circle cx="99.7757" cy="141.776" r="1.77568" fill="#EBEBEB"/>
<circle cx="74.7757" cy="141.776" r="1.77568" fill="#EBEBEB"/>
<circle cx="85.7757" cy="141.776" r="1.77568" fill="#EBEBEB"/>
<circle cx="96.7757" cy="141.776" r="1.77568" fill="#EBEBEB"/>
<circle cx="107.776" cy="141.776" r="1.77568" fill="#EBEBEB"/>
<circle cx="118.776" cy="141.776" r="1.77568" fill="#EBEBEB"/>
<circle cx="129.776" cy="141.776" r="1.77568" fill="#EBEBEB"/>
<circle cx="140.776" cy="141.776" r="1.77568" fill="#EBEBEB"/>
<circle cx="151.776" cy="141.776" r="1.77568" fill="#EBEBEB"/>
<circle cx="162.776" cy="141.776" r="1.77568" fill="#EBEBEB"/>
<circle cx="173.776" cy="141.776" r="1.77568" fill="#EBEBEB"/>
<circle cx="184.776" cy="141.776" r="1.77568" fill="#EBEBEB"/>
<circle cx="195.776" cy="141.776" r="1.77568" fill="#EBEBEB"/>
<circle cx="206.776" cy="141.776" r="1.77568" fill="#EBEBEB"/>
<circle cx="1.77568" cy="151.776" r="1.77568" fill="#EBEBEB"/>
<circle cx="12.7757" cy="151.776" r="1.77568" fill="#EBEBEB"/>
<circle cx="23.7757" cy="151.776" r="1.77568" fill="#EBEBEB"/>
<circle cx="66.7757" cy="151.776" r="1.77568" fill="#EBEBEB"/>
<circle cx="77.7757" cy="151.776" r="1.77568" fill="#EBEBEB"/>
<circle cx="88.7757" cy="151.776" r="1.77568" fill="#EBEBEB"/>
<circle cx="99.7757" cy="151.776" r="1.77568" fill="#EBEBEB"/>
<circle cx="74.7757" cy="151.776" r="1.77568" fill="#EBEBEB"/>
<circle cx="85.7757" cy="151.776" r="1.77568" fill="#EBEBEB"/>
<circle cx="96.7757" cy="151.776" r="1.77568" fill="#EBEBEB"/>
<circle cx="107.776" cy="151.776" r="1.77568" fill="#EBEBEB"/>
<circle cx="118.776" cy="151.776" r="1.77568" fill="#EBEBEB"/>
<circle cx="129.776" cy="151.776" r="1.77568" fill="#EBEBEB"/>
<circle cx="140.776" cy="151.776" r="1.77568" fill="#EBEBEB"/>
<circle cx="151.776" cy="151.776" r="1.77568" fill="#EBEBEB"/>
<circle cx="162.776" cy="151.776" r="1.77568" fill="#EBEBEB"/>
<circle cx="173.776" cy="151.776" r="1.77568" fill="#EBEBEB"/>
<circle cx="184.776" cy="151.776" r="1.77568" fill="#EBEBEB"/>
<circle cx="195.776" cy="151.776" r="1.77568" fill="#EBEBEB"/>
<circle cx="206.776" cy="151.776" r="1.77568" fill="#EBEBEB"/>
</svg>
