<svg width="209" height="151" viewBox="0 0 209 151" fill="none" xmlns="http://www.w3.org/2000/svg">
<ellipse cx="1.74343" cy="2.12508" rx="1.74343" ry="1.74129" fill="#EBEBEB"/>
<ellipse cx="12.5437" cy="2.12508" rx="1.74343" ry="1.74129" fill="#EBEBEB"/>
<ellipse cx="23.344" cy="2.12508" rx="1.74343" ry="1.74129" fill="#EBEBEB"/>
<ellipse cx="34.1442" cy="2.12508" rx="1.74343" ry="1.74129" fill="#EBEBEB"/>
<ellipse cx="44.9445" cy="2.12508" rx="1.74343" ry="1.74129" fill="#EBEBEB"/>
<ellipse cx="55.7448" cy="2.12508" rx="1.74343" ry="1.74129" fill="#EBEBEB"/>
<ellipse cx="66.5451" cy="2.12508" rx="1.74343" ry="1.74129" fill="#EBEBEB"/>
<ellipse cx="77.3452" cy="2.12508" rx="1.74343" ry="1.74129" fill="#EBEBEB"/>
<ellipse cx="88.1455" cy="2.12508" rx="1.74343" ry="1.74129" fill="#EBEBEB"/>
<ellipse cx="98.9458" cy="2.12508" rx="1.74343" ry="1.74129" fill="#EBEBEB"/>
<ellipse cx="109.746" cy="2.12508" rx="1.74343" ry="1.74129" fill="#EBEBEB"/>
<ellipse cx="120.546" cy="2.12508" rx="1.74343" ry="1.74129" fill="#EBEBEB"/>
<ellipse cx="131.347" cy="2.12508" rx="1.74343" ry="1.74129" fill="#EBEBEB"/>
<ellipse cx="142.147" cy="2.12508" rx="1.74343" ry="1.74129" fill="#EBEBEB"/>
<ellipse cx="152.947" cy="2.12508" rx="1.74343" ry="1.74129" fill="#EBEBEB"/>
<ellipse cx="163.747" cy="2.12508" rx="1.74343" ry="1.74129" fill="#EBEBEB"/>
<ellipse cx="174.548" cy="2.12508" rx="1.74343" ry="1.74129" fill="#EBEBEB"/>
<ellipse cx="185.348" cy="2.12508" rx="1.74343" ry="1.74129" fill="#EBEBEB"/>
<ellipse cx="196.148" cy="2.12508" rx="1.74343" ry="1.74129" fill="#EBEBEB"/>
<ellipse cx="206.948" cy="2.12508" rx="1.74343" ry="1.74129" fill="#EBEBEB"/>
<ellipse cx="1.74343" cy="11.9339" rx="1.74343" ry="1.74129" fill="#EBEBEB"/>
<ellipse cx="12.5437" cy="11.9339" rx="1.74343" ry="1.74129" fill="#EBEBEB"/>
<ellipse cx="23.344" cy="11.9339" rx="1.74343" ry="1.74129" fill="#EBEBEB"/>
<ellipse cx="34.1442" cy="11.9339" rx="1.74343" ry="1.74129" fill="#EBEBEB"/>
<ellipse cx="44.9445" cy="11.9339" rx="1.74343" ry="1.74129" fill="#EBEBEB"/>
<ellipse cx="55.7448" cy="11.9339" rx="1.74343" ry="1.74129" fill="#EBEBEB"/>
<ellipse cx="66.5451" cy="11.9339" rx="1.74343" ry="1.74129" fill="#EBEBEB"/>
<ellipse cx="77.3452" cy="11.9339" rx="1.74343" ry="1.74129" fill="#EBEBEB"/>
<ellipse cx="88.1455" cy="11.9339" rx="1.74343" ry="1.74129" fill="#EBEBEB"/>
<ellipse cx="98.9458" cy="11.9339" rx="1.74343" ry="1.74129" fill="#EBEBEB"/>
<ellipse cx="109.746" cy="11.9339" rx="1.74343" ry="1.74129" fill="#EBEBEB"/>
<ellipse cx="120.546" cy="11.9339" rx="1.74343" ry="1.74129" fill="#EBEBEB"/>
<ellipse cx="131.347" cy="11.9339" rx="1.74343" ry="1.74129" fill="#EBEBEB"/>
<ellipse cx="142.147" cy="11.9339" rx="1.74343" ry="1.74129" fill="#EBEBEB"/>
<ellipse cx="152.947" cy="11.9339" rx="1.74343" ry="1.74129" fill="#EBEBEB"/>
<ellipse cx="163.747" cy="11.9339" rx="1.74343" ry="1.74129" fill="#EBEBEB"/>
<ellipse cx="174.548" cy="11.9339" rx="1.74343" ry="1.74129" fill="#EBEBEB"/>
<ellipse cx="185.348" cy="11.9339" rx="1.74343" ry="1.74129" fill="#EBEBEB"/>
<ellipse cx="196.148" cy="11.9339" rx="1.74343" ry="1.74129" fill="#EBEBEB"/>
<ellipse cx="206.948" cy="11.9339" rx="1.74343" ry="1.74129" fill="#EBEBEB"/>
<ellipse cx="1.74343" cy="21.7428" rx="1.74343" ry="1.74129" fill="#EBEBEB"/>
<ellipse cx="12.5437" cy="21.7428" rx="1.74343" ry="1.74129" fill="#EBEBEB"/>
<ellipse cx="23.344" cy="21.7428" rx="1.74343" ry="1.74129" fill="#EBEBEB"/>
<ellipse cx="34.1442" cy="21.7428" rx="1.74343" ry="1.74129" fill="#EBEBEB"/>
<ellipse cx="44.9445" cy="21.7428" rx="1.74343" ry="1.74129" fill="#EBEBEB"/>
<ellipse cx="55.7448" cy="21.7428" rx="1.74343" ry="1.74129" fill="#EBEBEB"/>
<ellipse cx="66.5451" cy="21.7428" rx="1.74343" ry="1.74129" fill="#EBEBEB"/>
<ellipse cx="77.3452" cy="21.7428" rx="1.74343" ry="1.74129" fill="#EBEBEB"/>
<ellipse cx="88.1455" cy="21.7428" rx="1.74343" ry="1.74129" fill="#EBEBEB"/>
<ellipse cx="98.9458" cy="21.7428" rx="1.74343" ry="1.74129" fill="#EBEBEB"/>
<ellipse cx="109.746" cy="21.7428" rx="1.74343" ry="1.74129" fill="#EBEBEB"/>
<ellipse cx="120.546" cy="21.7428" rx="1.74343" ry="1.74129" fill="#EBEBEB"/>
<ellipse cx="131.347" cy="21.7428" rx="1.74343" ry="1.74129" fill="#EBEBEB"/>
<ellipse cx="142.147" cy="21.7428" rx="1.74343" ry="1.74129" fill="#EBEBEB"/>
<ellipse cx="152.947" cy="21.7428" rx="1.74343" ry="1.74129" fill="#EBEBEB"/>
<ellipse cx="163.747" cy="21.7428" rx="1.74343" ry="1.74129" fill="#EBEBEB"/>
<ellipse cx="174.548" cy="21.7428" rx="1.74343" ry="1.74129" fill="#EBEBEB"/>
<ellipse cx="185.348" cy="21.7428" rx="1.74343" ry="1.74129" fill="#EBEBEB"/>
<ellipse cx="196.148" cy="21.7428" rx="1.74343" ry="1.74129" fill="#EBEBEB"/>
<ellipse cx="206.948" cy="21.7428" rx="1.74343" ry="1.74129" fill="#EBEBEB"/>
<ellipse cx="1.74343" cy="31.5518" rx="1.74343" ry="1.74129" fill="#EBEBEB"/>
<ellipse cx="12.5437" cy="31.5518" rx="1.74343" ry="1.74129" fill="#EBEBEB"/>
<ellipse cx="23.344" cy="31.5518" rx="1.74343" ry="1.74129" fill="#EBEBEB"/>
<ellipse cx="34.1442" cy="31.5518" rx="1.74343" ry="1.74129" fill="#EBEBEB"/>
<ellipse cx="44.9445" cy="31.5518" rx="1.74343" ry="1.74129" fill="#EBEBEB"/>
<ellipse cx="55.7448" cy="31.5518" rx="1.74343" ry="1.74129" fill="#EBEBEB"/>
<ellipse cx="66.5451" cy="31.5518" rx="1.74343" ry="1.74129" fill="#EBEBEB"/>
<ellipse cx="77.3452" cy="31.5518" rx="1.74343" ry="1.74129" fill="#EBEBEB"/>
<ellipse cx="88.1455" cy="31.5518" rx="1.74343" ry="1.74129" fill="#EBEBEB"/>
<ellipse cx="98.9458" cy="31.5518" rx="1.74343" ry="1.74129" fill="#EBEBEB"/>
<ellipse cx="109.746" cy="31.5518" rx="1.74343" ry="1.74129" fill="#EBEBEB"/>
<ellipse cx="120.546" cy="31.5518" rx="1.74343" ry="1.74129" fill="#EBEBEB"/>
<ellipse cx="131.347" cy="31.5518" rx="1.74343" ry="1.74129" fill="#EBEBEB"/>
<ellipse cx="142.147" cy="31.5518" rx="1.74343" ry="1.74129" fill="#EBEBEB"/>
<ellipse cx="152.947" cy="31.5518" rx="1.74343" ry="1.74129" fill="#EBEBEB"/>
<ellipse cx="163.747" cy="31.5518" rx="1.74343" ry="1.74129" fill="#EBEBEB"/>
<ellipse cx="174.548" cy="31.5518" rx="1.74343" ry="1.74129" fill="#EBEBEB"/>
<ellipse cx="185.348" cy="31.5518" rx="1.74343" ry="1.74129" fill="#EBEBEB"/>
<ellipse cx="196.148" cy="31.5518" rx="1.74343" ry="1.74129" fill="#EBEBEB"/>
<ellipse cx="206.948" cy="31.5518" rx="1.74343" ry="1.74129" fill="#EBEBEB"/>
<ellipse cx="1.74343" cy="41.3607" rx="1.74343" ry="1.74129" fill="#EBEBEB"/>
<ellipse cx="12.5437" cy="41.3607" rx="1.74343" ry="1.74129" fill="#EBEBEB"/>
<ellipse cx="23.344" cy="41.3607" rx="1.74343" ry="1.74129" fill="#EBEBEB"/>
<ellipse cx="34.1442" cy="41.3607" rx="1.74343" ry="1.74129" fill="#EBEBEB"/>
<ellipse cx="44.9445" cy="41.3607" rx="1.74343" ry="1.74129" fill="#EBEBEB"/>
<ellipse cx="55.7448" cy="41.3607" rx="1.74343" ry="1.74129" fill="#EBEBEB"/>
<ellipse cx="66.5451" cy="41.3607" rx="1.74343" ry="1.74129" fill="#EBEBEB"/>
<ellipse cx="77.3452" cy="41.3607" rx="1.74343" ry="1.74129" fill="#EBEBEB"/>
<ellipse cx="88.1455" cy="41.3607" rx="1.74343" ry="1.74129" fill="#EBEBEB"/>
<ellipse cx="98.9458" cy="41.3607" rx="1.74343" ry="1.74129" fill="#EBEBEB"/>
<ellipse cx="109.746" cy="41.3607" rx="1.74343" ry="1.74129" fill="#EBEBEB"/>
<ellipse cx="120.546" cy="41.3607" rx="1.74343" ry="1.74129" fill="#EBEBEB"/>
<ellipse cx="131.347" cy="41.3607" rx="1.74343" ry="1.74129" fill="#EBEBEB"/>
<ellipse cx="142.147" cy="41.3607" rx="1.74343" ry="1.74129" fill="#EBEBEB"/>
<ellipse cx="152.947" cy="41.3607" rx="1.74343" ry="1.74129" fill="#EBEBEB"/>
<ellipse cx="163.747" cy="41.3607" rx="1.74343" ry="1.74129" fill="#EBEBEB"/>
<ellipse cx="174.548" cy="41.3607" rx="1.74343" ry="1.74129" fill="#EBEBEB"/>
<ellipse cx="185.348" cy="41.3607" rx="1.74343" ry="1.74129" fill="#EBEBEB"/>
<ellipse cx="196.148" cy="41.3607" rx="1.74343" ry="1.74129" fill="#EBEBEB"/>
<ellipse cx="206.948" cy="41.3607" rx="1.74343" ry="1.74129" fill="#EBEBEB"/>
<ellipse cx="1.74343" cy="51.1695" rx="1.74343" ry="1.74129" fill="#EBEBEB"/>
<ellipse cx="12.5437" cy="51.1695" rx="1.74343" ry="1.74129" fill="#EBEBEB"/>
<ellipse cx="23.344" cy="51.1695" rx="1.74343" ry="1.74129" fill="#EBEBEB"/>
<ellipse cx="34.1442" cy="51.1695" rx="1.74343" ry="1.74129" fill="#EBEBEB"/>
<ellipse cx="44.9445" cy="51.1695" rx="1.74343" ry="1.74129" fill="#EBEBEB"/>
<ellipse cx="55.7448" cy="51.1695" rx="1.74343" ry="1.74129" fill="#EBEBEB"/>
<ellipse cx="66.5451" cy="51.1695" rx="1.74343" ry="1.74129" fill="#EBEBEB"/>
<ellipse cx="77.3452" cy="51.1695" rx="1.74343" ry="1.74129" fill="#EBEBEB"/>
<ellipse cx="88.1455" cy="51.1695" rx="1.74343" ry="1.74129" fill="#EBEBEB"/>
<ellipse cx="98.9458" cy="51.1695" rx="1.74343" ry="1.74129" fill="#EBEBEB"/>
<ellipse cx="109.746" cy="51.1695" rx="1.74343" ry="1.74129" fill="#EBEBEB"/>
<ellipse cx="120.546" cy="51.1695" rx="1.74343" ry="1.74129" fill="#EBEBEB"/>
<ellipse cx="131.347" cy="51.1695" rx="1.74343" ry="1.74129" fill="#EBEBEB"/>
<ellipse cx="142.147" cy="51.1695" rx="1.74343" ry="1.74129" fill="#EBEBEB"/>
<ellipse cx="152.947" cy="51.1695" rx="1.74343" ry="1.74129" fill="#EBEBEB"/>
<ellipse cx="163.747" cy="51.1695" rx="1.74343" ry="1.74129" fill="#EBEBEB"/>
<ellipse cx="174.548" cy="51.1695" rx="1.74343" ry="1.74129" fill="#EBEBEB"/>
<ellipse cx="185.348" cy="51.1695" rx="1.74343" ry="1.74129" fill="#EBEBEB"/>
<ellipse cx="196.148" cy="51.1695" rx="1.74343" ry="1.74129" fill="#EBEBEB"/>
<ellipse cx="206.948" cy="51.1695" rx="1.74343" ry="1.74129" fill="#EBEBEB"/>
<ellipse cx="1.74343" cy="60.9786" rx="1.74343" ry="1.74129" fill="#EBEBEB"/>
<ellipse cx="12.5437" cy="60.9786" rx="1.74343" ry="1.74129" fill="#EBEBEB"/>
<ellipse cx="23.344" cy="60.9786" rx="1.74343" ry="1.74129" fill="#EBEBEB"/>
<ellipse cx="34.1442" cy="60.9786" rx="1.74343" ry="1.74129" fill="#EBEBEB"/>
<ellipse cx="44.9445" cy="60.9786" rx="1.74343" ry="1.74129" fill="#EBEBEB"/>
<ellipse cx="55.7448" cy="60.9786" rx="1.74343" ry="1.74129" fill="#EBEBEB"/>
<ellipse cx="66.5451" cy="60.9786" rx="1.74343" ry="1.74129" fill="#EBEBEB"/>
<ellipse cx="77.3452" cy="60.9786" rx="1.74343" ry="1.74129" fill="#EBEBEB"/>
<ellipse cx="88.1455" cy="60.9786" rx="1.74343" ry="1.74129" fill="#EBEBEB"/>
<ellipse cx="98.9458" cy="60.9786" rx="1.74343" ry="1.74129" fill="#EBEBEB"/>
<ellipse cx="109.746" cy="60.9786" rx="1.74343" ry="1.74129" fill="#EBEBEB"/>
<ellipse cx="120.546" cy="60.9786" rx="1.74343" ry="1.74129" fill="#EBEBEB"/>
<ellipse cx="131.347" cy="60.9786" rx="1.74343" ry="1.74129" fill="#EBEBEB"/>
<ellipse cx="142.147" cy="60.9786" rx="1.74343" ry="1.74129" fill="#EBEBEB"/>
<ellipse cx="152.947" cy="60.9786" rx="1.74343" ry="1.74129" fill="#EBEBEB"/>
<ellipse cx="163.747" cy="60.9786" rx="1.74343" ry="1.74129" fill="#EBEBEB"/>
<ellipse cx="174.548" cy="60.9786" rx="1.74343" ry="1.74129" fill="#EBEBEB"/>
<ellipse cx="185.348" cy="60.9786" rx="1.74343" ry="1.74129" fill="#EBEBEB"/>
<ellipse cx="196.148" cy="60.9786" rx="1.74343" ry="1.74129" fill="#EBEBEB"/>
<ellipse cx="206.948" cy="60.9786" rx="1.74343" ry="1.74129" fill="#EBEBEB"/>
<ellipse cx="1.74343" cy="70.7874" rx="1.74343" ry="1.74129" fill="#EBEBEB"/>
<ellipse cx="12.5437" cy="70.7874" rx="1.74343" ry="1.74129" fill="#EBEBEB"/>
<ellipse cx="23.344" cy="70.7874" rx="1.74343" ry="1.74129" fill="#EBEBEB"/>
<ellipse cx="34.1442" cy="70.7874" rx="1.74343" ry="1.74129" fill="#EBEBEB"/>
<ellipse cx="44.9445" cy="70.7874" rx="1.74343" ry="1.74129" fill="#EBEBEB"/>
<ellipse cx="55.7448" cy="70.7874" rx="1.74343" ry="1.74129" fill="#EBEBEB"/>
<ellipse cx="66.5451" cy="70.7874" rx="1.74343" ry="1.74129" fill="#EBEBEB"/>
<ellipse cx="77.3452" cy="70.7874" rx="1.74343" ry="1.74129" fill="#EBEBEB"/>
<ellipse cx="88.1455" cy="70.7874" rx="1.74343" ry="1.74129" fill="#EBEBEB"/>
<ellipse cx="98.9458" cy="70.7874" rx="1.74343" ry="1.74129" fill="#EBEBEB"/>
<ellipse cx="109.746" cy="70.7874" rx="1.74343" ry="1.74129" fill="#EBEBEB"/>
<ellipse cx="120.546" cy="70.7874" rx="1.74343" ry="1.74129" fill="#EBEBEB"/>
<ellipse cx="131.347" cy="70.7874" rx="1.74343" ry="1.74129" fill="#EBEBEB"/>
<ellipse cx="142.147" cy="70.7874" rx="1.74343" ry="1.74129" fill="#EBEBEB"/>
<ellipse cx="152.947" cy="70.7874" rx="1.74343" ry="1.74129" fill="#EBEBEB"/>
<ellipse cx="163.747" cy="70.7874" rx="1.74343" ry="1.74129" fill="#EBEBEB"/>
<ellipse cx="174.548" cy="70.7874" rx="1.74343" ry="1.74129" fill="#EBEBEB"/>
<ellipse cx="185.348" cy="70.7874" rx="1.74343" ry="1.74129" fill="#EBEBEB"/>
<ellipse cx="196.148" cy="70.7874" rx="1.74343" ry="1.74129" fill="#EBEBEB"/>
<ellipse cx="206.948" cy="70.7874" rx="1.74343" ry="1.74129" fill="#EBEBEB"/>
<ellipse cx="1.74343" cy="80.5963" rx="1.74343" ry="1.74129" fill="#EBEBEB"/>
<ellipse cx="12.5437" cy="80.5963" rx="1.74343" ry="1.74129" fill="#EBEBEB"/>
<ellipse cx="23.344" cy="80.5963" rx="1.74343" ry="1.74129" fill="#EBEBEB"/>
<ellipse cx="34.1442" cy="80.5963" rx="1.74343" ry="1.74129" fill="#EBEBEB"/>
<ellipse cx="44.9445" cy="80.5963" rx="1.74343" ry="1.74129" fill="#EBEBEB"/>
<ellipse cx="55.7448" cy="80.5963" rx="1.74343" ry="1.74129" fill="#EBEBEB"/>
<ellipse cx="66.5451" cy="80.5963" rx="1.74343" ry="1.74129" fill="#EBEBEB"/>
<ellipse cx="77.3452" cy="80.5963" rx="1.74343" ry="1.74129" fill="#EBEBEB"/>
<ellipse cx="88.1455" cy="80.5963" rx="1.74343" ry="1.74129" fill="#EBEBEB"/>
<ellipse cx="98.9458" cy="80.5963" rx="1.74343" ry="1.74129" fill="#EBEBEB"/>
<ellipse cx="109.746" cy="80.5963" rx="1.74343" ry="1.74129" fill="#EBEBEB"/>
<ellipse cx="120.546" cy="80.5963" rx="1.74343" ry="1.74129" fill="#EBEBEB"/>
<ellipse cx="131.347" cy="80.5963" rx="1.74343" ry="1.74129" fill="#EBEBEB"/>
<ellipse cx="142.147" cy="80.5963" rx="1.74343" ry="1.74129" fill="#EBEBEB"/>
<ellipse cx="152.947" cy="80.5963" rx="1.74343" ry="1.74129" fill="#EBEBEB"/>
<ellipse cx="163.747" cy="80.5963" rx="1.74343" ry="1.74129" fill="#EBEBEB"/>
<ellipse cx="174.548" cy="80.5963" rx="1.74343" ry="1.74129" fill="#EBEBEB"/>
<ellipse cx="185.348" cy="80.5963" rx="1.74343" ry="1.74129" fill="#EBEBEB"/>
<ellipse cx="196.148" cy="80.5963" rx="1.74343" ry="1.74129" fill="#EBEBEB"/>
<ellipse cx="206.948" cy="80.5963" rx="1.74343" ry="1.74129" fill="#EBEBEB"/>
<ellipse cx="1.74343" cy="90.4051" rx="1.74343" ry="1.74129" fill="#EBEBEB"/>
<ellipse cx="12.5437" cy="90.4051" rx="1.74343" ry="1.74129" fill="#EBEBEB"/>
<ellipse cx="23.344" cy="90.4051" rx="1.74343" ry="1.74129" fill="#EBEBEB"/>
<ellipse cx="34.1442" cy="90.4051" rx="1.74343" ry="1.74129" fill="#EBEBEB"/>
<ellipse cx="44.9445" cy="90.4051" rx="1.74343" ry="1.74129" fill="#EBEBEB"/>
<ellipse cx="55.7448" cy="90.4051" rx="1.74343" ry="1.74129" fill="#EBEBEB"/>
<ellipse cx="66.5451" cy="90.4051" rx="1.74343" ry="1.74129" fill="#EBEBEB"/>
<ellipse cx="77.3452" cy="90.4051" rx="1.74343" ry="1.74129" fill="#EBEBEB"/>
<ellipse cx="88.1455" cy="90.4051" rx="1.74343" ry="1.74129" fill="#EBEBEB"/>
<ellipse cx="98.9458" cy="90.4051" rx="1.74343" ry="1.74129" fill="#EBEBEB"/>
<ellipse cx="109.746" cy="90.4051" rx="1.74343" ry="1.74129" fill="#EBEBEB"/>
<ellipse cx="120.546" cy="90.4051" rx="1.74343" ry="1.74129" fill="#EBEBEB"/>
<ellipse cx="131.347" cy="90.4051" rx="1.74343" ry="1.74129" fill="#EBEBEB"/>
<ellipse cx="142.147" cy="90.4051" rx="1.74343" ry="1.74129" fill="#EBEBEB"/>
<ellipse cx="152.947" cy="90.4051" rx="1.74343" ry="1.74129" fill="#EBEBEB"/>
<ellipse cx="163.747" cy="90.4051" rx="1.74343" ry="1.74129" fill="#EBEBEB"/>
<ellipse cx="174.548" cy="90.4051" rx="1.74343" ry="1.74129" fill="#EBEBEB"/>
<ellipse cx="185.348" cy="90.4051" rx="1.74343" ry="1.74129" fill="#EBEBEB"/>
<ellipse cx="196.148" cy="90.4051" rx="1.74343" ry="1.74129" fill="#EBEBEB"/>
<ellipse cx="206.948" cy="90.4051" rx="1.74343" ry="1.74129" fill="#EBEBEB"/>
<ellipse cx="1.74343" cy="100.214" rx="1.74343" ry="1.74129" fill="#EBEBEB"/>
<ellipse cx="12.5437" cy="100.214" rx="1.74343" ry="1.74129" fill="#EBEBEB"/>
<ellipse cx="23.344" cy="100.214" rx="1.74343" ry="1.74129" fill="#EBEBEB"/>
<ellipse cx="34.1442" cy="100.214" rx="1.74343" ry="1.74129" fill="#EBEBEB"/>
<ellipse cx="44.9445" cy="100.214" rx="1.74343" ry="1.74129" fill="#EBEBEB"/>
<ellipse cx="55.7448" cy="100.214" rx="1.74343" ry="1.74129" fill="#EBEBEB"/>
<ellipse cx="66.5451" cy="100.214" rx="1.74343" ry="1.74129" fill="#EBEBEB"/>
<ellipse cx="77.3452" cy="100.214" rx="1.74343" ry="1.74129" fill="#EBEBEB"/>
<ellipse cx="88.1455" cy="100.214" rx="1.74343" ry="1.74129" fill="#EBEBEB"/>
<ellipse cx="98.9458" cy="100.214" rx="1.74343" ry="1.74129" fill="#EBEBEB"/>
<ellipse cx="109.746" cy="100.214" rx="1.74343" ry="1.74129" fill="#EBEBEB"/>
<ellipse cx="120.546" cy="100.214" rx="1.74343" ry="1.74129" fill="#EBEBEB"/>
<ellipse cx="131.347" cy="100.214" rx="1.74343" ry="1.74129" fill="#EBEBEB"/>
<ellipse cx="142.147" cy="100.214" rx="1.74343" ry="1.74129" fill="#EBEBEB"/>
<ellipse cx="152.947" cy="100.214" rx="1.74343" ry="1.74129" fill="#EBEBEB"/>
<ellipse cx="163.747" cy="100.214" rx="1.74343" ry="1.74129" fill="#EBEBEB"/>
<ellipse cx="174.548" cy="100.214" rx="1.74343" ry="1.74129" fill="#EBEBEB"/>
<ellipse cx="185.348" cy="100.214" rx="1.74343" ry="1.74129" fill="#EBEBEB"/>
<ellipse cx="196.148" cy="100.214" rx="1.74343" ry="1.74129" fill="#EBEBEB"/>
<ellipse cx="206.948" cy="100.214" rx="1.74343" ry="1.74129" fill="#EBEBEB"/>
<ellipse cx="1.74343" cy="110.023" rx="1.74343" ry="1.74129" fill="#EBEBEB"/>
<ellipse cx="12.5437" cy="110.023" rx="1.74343" ry="1.74129" fill="#EBEBEB"/>
<ellipse cx="23.344" cy="110.023" rx="1.74343" ry="1.74129" fill="#EBEBEB"/>
<ellipse cx="34.1442" cy="110.023" rx="1.74343" ry="1.74129" fill="#EBEBEB"/>
<ellipse cx="44.9445" cy="110.023" rx="1.74343" ry="1.74129" fill="#EBEBEB"/>
<ellipse cx="55.7448" cy="110.023" rx="1.74343" ry="1.74129" fill="#EBEBEB"/>
<ellipse cx="66.5451" cy="110.023" rx="1.74343" ry="1.74129" fill="#EBEBEB"/>
<ellipse cx="77.3452" cy="110.023" rx="1.74343" ry="1.74129" fill="#EBEBEB"/>
<ellipse cx="88.1455" cy="110.023" rx="1.74343" ry="1.74129" fill="#EBEBEB"/>
<ellipse cx="98.9458" cy="110.023" rx="1.74343" ry="1.74129" fill="#EBEBEB"/>
<ellipse cx="109.746" cy="110.023" rx="1.74343" ry="1.74129" fill="#EBEBEB"/>
<ellipse cx="120.546" cy="110.023" rx="1.74343" ry="1.74129" fill="#EBEBEB"/>
<ellipse cx="131.347" cy="110.023" rx="1.74343" ry="1.74129" fill="#EBEBEB"/>
<ellipse cx="142.147" cy="110.023" rx="1.74343" ry="1.74129" fill="#EBEBEB"/>
<ellipse cx="152.947" cy="110.023" rx="1.74343" ry="1.74129" fill="#EBEBEB"/>
<ellipse cx="163.747" cy="110.023" rx="1.74343" ry="1.74129" fill="#EBEBEB"/>
<ellipse cx="174.548" cy="110.023" rx="1.74343" ry="1.74129" fill="#EBEBEB"/>
<ellipse cx="185.348" cy="110.023" rx="1.74343" ry="1.74129" fill="#EBEBEB"/>
<ellipse cx="196.148" cy="110.023" rx="1.74343" ry="1.74129" fill="#EBEBEB"/>
<ellipse cx="206.948" cy="110.023" rx="1.74343" ry="1.74129" fill="#EBEBEB"/>
<ellipse cx="1.74343" cy="119.832" rx="1.74343" ry="1.74129" fill="#EBEBEB"/>
<ellipse cx="12.5437" cy="119.832" rx="1.74343" ry="1.74129" fill="#EBEBEB"/>
<ellipse cx="23.344" cy="119.832" rx="1.74343" ry="1.74129" fill="#EBEBEB"/>
<ellipse cx="34.1442" cy="119.832" rx="1.74343" ry="1.74129" fill="#EBEBEB"/>
<ellipse cx="44.9445" cy="119.832" rx="1.74343" ry="1.74129" fill="#EBEBEB"/>
<ellipse cx="55.7448" cy="119.832" rx="1.74343" ry="1.74129" fill="#EBEBEB"/>
<ellipse cx="66.5451" cy="119.832" rx="1.74343" ry="1.74129" fill="#EBEBEB"/>
<ellipse cx="77.3452" cy="119.832" rx="1.74343" ry="1.74129" fill="#EBEBEB"/>
<ellipse cx="88.1455" cy="119.832" rx="1.74343" ry="1.74129" fill="#EBEBEB"/>
<ellipse cx="98.9458" cy="119.832" rx="1.74343" ry="1.74129" fill="#EBEBEB"/>
<ellipse cx="109.746" cy="119.832" rx="1.74343" ry="1.74129" fill="#EBEBEB"/>
<ellipse cx="120.546" cy="119.832" rx="1.74343" ry="1.74129" fill="#EBEBEB"/>
<ellipse cx="131.347" cy="119.832" rx="1.74343" ry="1.74129" fill="#EBEBEB"/>
<ellipse cx="142.147" cy="119.832" rx="1.74343" ry="1.74129" fill="#EBEBEB"/>
<ellipse cx="152.947" cy="119.832" rx="1.74343" ry="1.74129" fill="#EBEBEB"/>
<ellipse cx="163.747" cy="119.832" rx="1.74343" ry="1.74129" fill="#EBEBEB"/>
<ellipse cx="174.548" cy="119.832" rx="1.74343" ry="1.74129" fill="#EBEBEB"/>
<ellipse cx="185.348" cy="119.832" rx="1.74343" ry="1.74129" fill="#EBEBEB"/>
<ellipse cx="196.148" cy="119.832" rx="1.74343" ry="1.74129" fill="#EBEBEB"/>
<ellipse cx="206.948" cy="119.832" rx="1.74343" ry="1.74129" fill="#EBEBEB"/>
<ellipse cx="1.74343" cy="129.641" rx="1.74343" ry="1.74129" fill="#EBEBEB"/>
<ellipse cx="12.5437" cy="129.641" rx="1.74343" ry="1.74129" fill="#EBEBEB"/>
<ellipse cx="23.344" cy="129.641" rx="1.74343" ry="1.74129" fill="#EBEBEB"/>
<ellipse cx="34.1442" cy="129.641" rx="1.74343" ry="1.74129" fill="#EBEBEB"/>
<ellipse cx="44.9445" cy="129.641" rx="1.74343" ry="1.74129" fill="#EBEBEB"/>
<ellipse cx="55.7448" cy="129.641" rx="1.74343" ry="1.74129" fill="#EBEBEB"/>
<ellipse cx="66.5451" cy="129.641" rx="1.74343" ry="1.74129" fill="#EBEBEB"/>
<ellipse cx="77.3452" cy="129.641" rx="1.74343" ry="1.74129" fill="#EBEBEB"/>
<ellipse cx="88.1455" cy="129.641" rx="1.74343" ry="1.74129" fill="#EBEBEB"/>
<ellipse cx="98.9458" cy="129.641" rx="1.74343" ry="1.74129" fill="#EBEBEB"/>
<ellipse cx="109.746" cy="129.641" rx="1.74343" ry="1.74129" fill="#EBEBEB"/>
<ellipse cx="120.546" cy="129.641" rx="1.74343" ry="1.74129" fill="#EBEBEB"/>
<ellipse cx="131.347" cy="129.641" rx="1.74343" ry="1.74129" fill="#EBEBEB"/>
<ellipse cx="142.147" cy="129.641" rx="1.74343" ry="1.74129" fill="#EBEBEB"/>
<ellipse cx="152.947" cy="129.641" rx="1.74343" ry="1.74129" fill="#EBEBEB"/>
<ellipse cx="163.747" cy="129.641" rx="1.74343" ry="1.74129" fill="#EBEBEB"/>
<ellipse cx="174.548" cy="129.641" rx="1.74343" ry="1.74129" fill="#EBEBEB"/>
<ellipse cx="185.348" cy="129.641" rx="1.74343" ry="1.74129" fill="#EBEBEB"/>
<ellipse cx="196.148" cy="129.641" rx="1.74343" ry="1.74129" fill="#EBEBEB"/>
<ellipse cx="206.948" cy="129.641" rx="1.74343" ry="1.74129" fill="#EBEBEB"/>
<ellipse cx="1.74343" cy="139.45" rx="1.74343" ry="1.74129" fill="#EBEBEB"/>
<ellipse cx="12.5437" cy="139.45" rx="1.74343" ry="1.74129" fill="#EBEBEB"/>
<ellipse cx="23.344" cy="139.45" rx="1.74343" ry="1.74129" fill="#EBEBEB"/>
<ellipse cx="34.1442" cy="139.45" rx="1.74343" ry="1.74129" fill="#EBEBEB"/>
<ellipse cx="44.9445" cy="139.45" rx="1.74343" ry="1.74129" fill="#EBEBEB"/>
<ellipse cx="55.7448" cy="139.45" rx="1.74343" ry="1.74129" fill="#EBEBEB"/>
<ellipse cx="66.5451" cy="139.45" rx="1.74343" ry="1.74129" fill="#EBEBEB"/>
<ellipse cx="77.3452" cy="139.45" rx="1.74343" ry="1.74129" fill="#EBEBEB"/>
<ellipse cx="88.1455" cy="139.45" rx="1.74343" ry="1.74129" fill="#EBEBEB"/>
<ellipse cx="98.9458" cy="139.45" rx="1.74343" ry="1.74129" fill="#EBEBEB"/>
<ellipse cx="109.746" cy="139.45" rx="1.74343" ry="1.74129" fill="#EBEBEB"/>
<ellipse cx="120.546" cy="139.45" rx="1.74343" ry="1.74129" fill="#EBEBEB"/>
<ellipse cx="131.347" cy="139.45" rx="1.74343" ry="1.74129" fill="#EBEBEB"/>
<ellipse cx="142.147" cy="139.45" rx="1.74343" ry="1.74129" fill="#EBEBEB"/>
<ellipse cx="152.947" cy="139.45" rx="1.74343" ry="1.74129" fill="#EBEBEB"/>
<ellipse cx="163.747" cy="139.45" rx="1.74343" ry="1.74129" fill="#EBEBEB"/>
<ellipse cx="174.548" cy="139.45" rx="1.74343" ry="1.74129" fill="#EBEBEB"/>
<ellipse cx="185.348" cy="139.45" rx="1.74343" ry="1.74129" fill="#EBEBEB"/>
<ellipse cx="196.148" cy="139.45" rx="1.74343" ry="1.74129" fill="#EBEBEB"/>
<ellipse cx="206.948" cy="139.45" rx="1.74343" ry="1.74129" fill="#EBEBEB"/>
<ellipse cx="1.74343" cy="149.259" rx="1.74343" ry="1.74129" fill="#EBEBEB"/>
<ellipse cx="12.5437" cy="149.259" rx="1.74343" ry="1.74129" fill="#EBEBEB"/>
<ellipse cx="23.344" cy="149.259" rx="1.74343" ry="1.74129" fill="#EBEBEB"/>
<ellipse cx="34.1442" cy="149.259" rx="1.74343" ry="1.74129" fill="#EBEBEB"/>
<ellipse cx="44.9445" cy="149.259" rx="1.74343" ry="1.74129" fill="#EBEBEB"/>
<ellipse cx="55.7448" cy="149.259" rx="1.74343" ry="1.74129" fill="#EBEBEB"/>
<ellipse cx="66.5451" cy="149.259" rx="1.74343" ry="1.74129" fill="#EBEBEB"/>
<ellipse cx="77.3452" cy="149.259" rx="1.74343" ry="1.74129" fill="#EBEBEB"/>
<ellipse cx="88.1455" cy="149.259" rx="1.74343" ry="1.74129" fill="#EBEBEB"/>
<ellipse cx="98.9458" cy="149.259" rx="1.74343" ry="1.74129" fill="#EBEBEB"/>
<ellipse cx="109.746" cy="149.259" rx="1.74343" ry="1.74129" fill="#EBEBEB"/>
<ellipse cx="120.546" cy="149.259" rx="1.74343" ry="1.74129" fill="#EBEBEB"/>
<ellipse cx="131.347" cy="149.259" rx="1.74343" ry="1.74129" fill="#EBEBEB"/>
<ellipse cx="142.147" cy="149.259" rx="1.74343" ry="1.74129" fill="#EBEBEB"/>
<ellipse cx="152.947" cy="149.259" rx="1.74343" ry="1.74129" fill="#EBEBEB"/>
<ellipse cx="163.747" cy="149.259" rx="1.74343" ry="1.74129" fill="#EBEBEB"/>
<ellipse cx="174.548" cy="149.259" rx="1.74343" ry="1.74129" fill="#EBEBEB"/>
<ellipse cx="185.348" cy="149.259" rx="1.74343" ry="1.74129" fill="#EBEBEB"/>
<ellipse cx="196.148" cy="149.259" rx="1.74343" ry="1.74129" fill="#EBEBEB"/>
<ellipse cx="206.948" cy="149.259" rx="1.74343" ry="1.74129" fill="#EBEBEB"/>
</svg>
